<svg xmlns="http://www.w3.org/2000/svg" width="14" height="15" viewBox="0 0 14 15" fill="none">
  <path d="M10.728 4.83865C10.6764 4.78658 10.6149 4.74525 10.5472 4.71704C10.4795 4.68884 10.4069 4.67432 10.3336 4.67432C10.2602 4.67432 10.1876 4.68884 10.1199 4.71704C10.0522 4.74525 9.99079 4.78658 9.93914 4.83865L5.80025 8.98309L4.06136 7.23865C4.00774 7.18685 3.94444 7.14612 3.87507 7.11878C3.80571 7.09145 3.73164 7.07804 3.6571 7.07933C3.58255 7.08062 3.50899 7.09658 3.44061 7.1263C3.37224 7.15602 3.31038 7.19891 3.25858 7.25254C3.20678 7.30616 3.16605 7.36946 3.13872 7.43883C3.11138 7.50819 3.09798 7.58226 3.09927 7.6568C3.10056 7.73135 3.11652 7.80491 3.14624 7.87329C3.17595 7.94166 3.21885 8.00352 3.27247 8.05532L5.40581 10.1886C5.45745 10.2407 5.5189 10.2821 5.5866 10.3103C5.6543 10.3385 5.72691 10.353 5.80025 10.353C5.87359 10.353 5.9462 10.3385 6.0139 10.3103C6.0816 10.2821 6.14305 10.2407 6.19469 10.1886L10.728 5.65532C10.7844 5.60329 10.8294 5.54015 10.8602 5.46987C10.891 5.3996 10.9069 5.32371 10.9069 5.24698C10.9069 5.17026 10.891 5.09437 10.8602 5.02409C10.8294 4.95381 10.7844 4.89067 10.728 4.83865Z" fill="#45CCFE"/>
</svg>